. 
 
http://www.torrenting.com          :     Once & For all ;)


               www . Torrenting . Com 

(((((((((((((= Enjoy No RAR releases =))))))))))))))))))))


...................................NFO:....................................

.[pre]
oooooo     oooo  o8o   .oooooo..o ooooo     ooo       .o.       ooooo         o8o   .oooooo..o oooooooooooo
`888.     .8'   `"'  d8P'    `Y8 `888'     `8'      .888.      `888'         `"'  d8P'    `Y8 `888'     `8
 `888.   .8'   oooo  Y88bo.       888       8      .8"888.      888         oooo  Y88bo.       888        
  `888. .8'    `888   `"Y8888o.   888       8     .8' `888.     888         `888   `"Y8888o.   888oooo8    
   `888.8'      888       `"Y88b  888       8    .88ooo8888.    888          888       `"Y88b  888    "    
    `888'       888  oo     .d8P  `88.    .8'   .8'     `888.   888       o  888  oo     .d8P  888       o
     `8'       o888o 8""88888P'     `YbodP'    o88o     o8888o o888ooooood8 o888o 8""88888P'  o888ooooood8




Title: Warrior 2011 TS XviD - VISUALiSE
Format: Xvid
Language: English
Subtitles: No
Imdb: http://www.imdb.com/title/tt1291584/

Plot:
The youngest son (Hardy) of an alcoholic former boxer (Nolte) 
returns home, where he's trained by his father for competition 
in a mixed martial arts tournament.. 

Sources:
Video: TNZ 720Files - Many Thanks :D ;)
Audio: Warrior (2011) TS XVID - reCodeM8-KinG RG - Many Thanks :D :P

Release Notes:
VISUALiSE Bringing you 
Warrior 2011 TS XviD - VISUALiSE
video was from the TNZ 720 from which we got from TNZ thanks guys :D
we ran sum filters added some sharpen and played with the sats a bit
audio is from the Warrior (2011) TS XVID - reCodeM8-KinG RG thanx guys :D :P
release lurking the internet which which is nice line to complete the 
release we muxed this onto our encode and done sum final touches to 
get this looking nice :D :D


enjoy. :P

Info:

Video
ID                               : 0
Format                           : MPEG-4 Visual
Format profile                   : Advanced Simple@L5
Format settings, BVOP            : 2
Format settings, QPel            : No
Format settings, GMC             : No warppoints
Format settings, Matrix          : Default (H.263)
Codec ID                         : XVID
Codec ID/Hint                    : XviD
Duration                         : 2h 7mn
Bit rate                         : 1 497 Kbps
Width                            : 720 pixels
Height                           : 288 pixels
Display aspect ratio             : 2.500
Frame rate                       : 25.000 fps
Color space                      : YUV
Chroma subsampling               : 4:2:0
Bit depth                        : 8 bits
Scan type                        : Progressive
Compression mode                 : Lossy
Bits/(Pixel*Frame)               : 0.289
Stream size                      : 1.33 GiB (92%)

Audio
ID                               : 1
Format                           : MPEG Audio
Format version                   : Version 1
Format profile                   : Layer 3
Mode                             : Joint stereo
Mode extension                   : MS Stereo
Codec ID                         : 55
Codec ID/Hint                    : MP3
Duration                         : 2h 7mn
Bit rate mode                    : Constant
Bit rate                         : 128 Kbps
Channel(s)                       : 2 channels
Sampling rate                    : 44.1 KHz
Compression mode                 : Lossy
Stream size                      : 117 MiB (8%)
Alignment                        : Aligned on interleaves
Interleave, duration             : 40 ms (1.00 video frame)
Writing library                  : LAME3.98r
Encoding settings                : -m j -V 4 -q 2 -lowpass 17 -b 128

Screens:
[IMG]http://i.imgur.com/v3R3Q.png[/IMG]
[IMG]http://i.imgur.com/HxjMZ.png[/IMG]
[IMG]http://i.imgur.com/aNo8Y.png[/IMG]
[IMG]http://i.imgur.com/oQZW0.png[/IMG]
[IMG]http://i.imgur.com/ppDTL.png[/IMG]
[IMG]http://i.imgur.com/x4ox7.png[/IMG]

Greetz
The Select Few .... YOU Know Who YOU Are ;)
The Rest Of YOU ....................SUCK :P
[/pre]